<svg id="Layer_1" data-name="Layer 1" xmlns="http://www.w3.org/2000/svg" viewBox="0 0 938 938">
  <defs>
    <style>
      .cls-1 {
        fill: #fff;
      }

      .cls-1, .cls-2, .cls-3 {
        stroke: #000;
        stroke-miterlimit: 10;
      }

      .cls-3 {
        fill: none;
        stroke-width: 30px;
      }
    </style>
  </defs>
  <g>
    <path class="cls-1" d="M469,925C217.09,924.84,13,720.5,13.16,468.6A456.14,456.14,0,0,1,291.5,48.83C523.56-49.2,791.15,59.5,889.18,291.5S878.56,791.14,646.5,889.17A452.83,452.83,0,0,1,469,925Z"/>
    <path class="cls-2" d="M469,25.5c245,.18,443.48,199,443.3,444A443.63,443.63,0,0,1,641.62,877.7C415.92,973,155.68,867.36,60.34,641.7s10.34-485.94,236-581.28A440.69,440.69,0,0,1,469,25.5m0-25C210.25.5.5,210.25.5,469S210.25,937.5,469,937.5,937.5,727.75,937.5,469,727.75.5,469,.5Z"/>
  </g>
  <g>
    <path class="cls-3" d="M679,384H259a15,15,0,0,1-15-15h0a15,15,0,0,1,15-15H679a15,15,0,0,1,15,15h0A15,15,0,0,1,679,384Z"/>
    <path class="cls-3" d="M726.6,484H211.4c-10.16,0-18.4-6.72-18.4-15h0c0-8.28,8.24-15,18.4-15H726.6c10.16,0,18.4,6.72,18.4,15h0C745,477.28,736.76,484,726.6,484Z"/>
    <path class="cls-3" d="M679,584H259a15,15,0,0,1-15-15h0a15,15,0,0,1,15-15H679a15,15,0,0,1,15,15h0A15,15,0,0,1,679,584Z"/>
  </g>
</svg>
