<svg id="Layer_1" data-name="Layer 1" xmlns="http://www.w3.org/2000/svg" viewBox="0 0 938 938">
  <defs>
    <style>
      .cls-1 {
        fill: #fff;
      }

      .cls-1, .cls-2, .cls-3 {
        stroke: #000;
        stroke-miterlimit: 10;
      }

      .cls-3 {
        stroke-width: 30px;
      }
    </style>
  </defs>
  <g>
    <path class="cls-1" d="M469,925C217.1,924.8,13,720.5,13.2,468.6A456.19,456.19,0,0,1,291.5,48.8c232.1-98,499.7,10.7,597.7,242.7S878.6,791.1,646.5,889.2A454.7,454.7,0,0,1,469,925Z"/>
    <path class="cls-2" d="M469,25.5c245,.2,443.5,199,443.3,444A443.49,443.49,0,0,1,641.6,877.7C415.9,973,155.7,867.4,60.3,641.7s10.3-485.9,236-581.3A441.94,441.94,0,0,1,469,25.5m0-25C210.2.5.5,210.2.5,469S210.2,937.5,469,937.5,937.5,727.8,937.5,469,727.8.5,469,.5Z"/>
  </g>
  <g>
    <g>
      <g>
        <path class="cls-3" d="M398,745.86V280.13c0-9.23,6.68-16.64,14.95-16.64h0c8.27,0,14.95,7.41,14.95,16.64V745.86c0,9.22-6.68,16.64-14.95,16.64h0C404.67,762.5,398,755.08,398,745.86Z"/>
        <path class="cls-3" d="M507.72,745.86V280.13c0-9.23,6.67-16.64,14.95-16.64h0c8.27,0,15,7.41,15,16.64V745.86c0,9.22-6.68,16.64-15,16.64h0C514.39,762.5,507.72,755.08,507.72,745.86Z"/>
        <path class="cls-3" d="M279,745.86V280.13c0-9.23,6.68-16.64,14.95-16.64h0c8.27,0,14.95,7.41,14.95,16.64V745.86c0,9.22-6.68,16.64-14.95,16.64h0C285.78,762.5,279,755.08,279,745.86Z"/>
        <path class="cls-3" d="M629.1,744.87V279.13c0-9.22,6.68-16.63,14.95-16.63h0c8.27,0,15,7.41,15,16.63V744.87c0,9.22-6.68,16.63-15,16.63h0C635.78,761.5,629.1,754,629.1,744.87Z"/>
      </g>
      <path class="cls-3" d="M236.13,248.54H701.87c9.22,0,16.63,6.68,16.63,15h0c0,8.27-7.41,14.95-16.63,14.95H236.13c-9.22,0-16.63-6.68-16.63-14.95h0C219.5,255.22,227,248.54,236.13,248.54Z"/>
      <path class="cls-3" d="M236.13,746.55H701.87c9.22,0,16.63,6.68,16.63,15h0c0,8.27-7.41,15-16.63,15H236.13c-9.22,0-16.63-6.68-16.63-15h0C219.5,753.23,227,746.55,236.13,746.55Z"/>
    </g>
    <path class="cls-3" d="M375.67,161.55H562.33c3.7,0,6.67,6.68,6.67,14.95h0c0,8.27-3,14.95-6.67,14.95H375.67c-3.7,0-6.67-6.68-6.67-14.95h0C369,168.23,372,161.55,375.67,161.55Z"/>
  </g>
</svg>
