<?xml version="1.0" encoding="UTF-8"?><svg id="Lager_1" xmlns="http://www.w3.org/2000/svg" viewBox="0 0 528.97 486.95"><defs><style>.cls-1,.cls-2{fill:#fff;}.cls-2{stroke:#000;stroke-miterlimit:10;stroke-width:15px;}</style></defs><rect class="cls-2" x="7.5" y="7.5" width="471.95" height="471.95" rx="235.97" ry="235.97"/><g><path class="cls-1" d="M174.88,139.78c19.48,42.88,28.62,90.42,26.43,137.47-1.23,26.49-7.03,54.77-26.35,72.93,46.52-11.05,86.78-39.53,124.43-69,18.05-14.13,36.13-28.99,48.37-48.37,1.92-3.04,3.75-6.64,2.73-10.08-.8-2.71-3.18-4.61-5.45-6.3-29.21-21.76-61.47-39.04-93.59-56.23-24.83-13.29-51.96-27-79.77-22.6"/><path d="M168.41,143.57c1.07,2.36,2.11,4.73,3.12,7.12l-.76-1.79c8.09,19.17,14.17,39.17,18.13,59.6,1.12,5.76,2.06,11.55,2.84,17.37l-.27-1.99c2.49,18.75,3.31,37.77,2.15,56.66-.28,4.62-.71,9.23-1.33,13.81l.27-1.99c-1.43,10.53-3.83,20.96-7.93,30.79l.76-1.79c-1.95,4.61-4.26,9.07-7.02,13.24-.66,1-1.35,1.98-2.06,2.95-.19,.25-.38,.51-.57,.76-.54,.72,1.14-1.43,.36-.47-.4,.49-.79,.99-1.2,1.47-1.64,1.96-3.4,3.81-5.25,5.56-2.32,2.19-2.93,6.37-1.17,9.09,1.85,2.87,5.12,4.25,8.47,3.45,27.12-6.48,52.55-18.85,76.03-33.67,11.67-7.37,22.94-15.36,33.98-23.64,11.24-8.43,22.43-17.01,33.16-26.08s20.81-19.01,29.25-30.37c4.78-6.44,10.41-14.02,8.44-22.51-1.1-4.73-4.7-7.93-8.38-10.73-2.93-2.22-5.93-4.37-8.94-6.49-24.07-16.95-49.89-31.21-75.8-45.13-13.28-7.13-26.51-14.35-40.45-20.13-13.52-5.61-28.05-9.61-42.79-9.39-3.95,.06-7.87,.49-11.78,1.1-1.73,.27-3.64,2-4.48,3.45-.94,1.61-1.34,3.98-.76,5.78s1.71,3.57,3.45,4.48c1.9,1,3.67,1.08,5.78,.76,.45-.07,.89-.13,1.34-.2l-1.99,.27c6.62-.89,13.3-.8,19.92,.08l-1.99-.27c10.43,1.43,20.49,4.71,30.17,8.77l-1.79-.76c8.87,3.75,17.45,8.15,25.95,12.67s16.99,9.08,25.44,13.7c17.14,9.37,34.13,19.06,50.46,29.79,4.55,2.99,9.05,6.05,13.48,9.21,2.22,1.58,4.42,3.18,6.6,4.81,.13,.1,.57,.35,.62,.47-.13-.28-1.47-1.17-.44-.32,.45,.37,.89,.76,1.31,1.17,.14,.14,.27,.28,.4,.42,1.01,1.09-.39-.41-.32-.49,.03-.03,.91,1.59,.93,1.64l-.76-1.79c.25,.65,.41,1.28,.51,1.96l-.27-1.99c.06,.71,.04,1.38-.05,2.09l.27-1.99c-.17,1-.46,1.94-.84,2.88l.76-1.79c-1.2,2.78-2.97,5.32-4.69,7.8-.81,1.17-1.65,2.33-2.5,3.47-.17,.23-.34,.46-.52,.68-.91,1.21,.89-1.14,.26-.33-.48,.62-.97,1.23-1.46,1.84-3.68,4.55-7.67,8.85-11.85,12.95-8.41,8.26-17.57,15.7-26.83,22.98-2.33,1.83-4.66,3.65-7,5.46-.4,.31-1.33,1.01,.31-.24-.29,.22-.57,.44-.86,.66-.52,.4-1.03,.8-1.55,1.19-1.27,.97-2.53,1.94-3.81,2.9-4.75,3.6-9.53,7.15-14.37,10.63-9.66,6.94-19.54,13.6-29.74,19.73-11.35,6.82-23.1,12.99-35.3,18.15l1.79-.76c-10.47,4.4-21.24,8.03-32.29,10.67l7.3,12.54c10.2-9.64,17.08-22.14,21.47-35.36,4.32-13.03,6.18-26.88,6.96-40.55,.87-15.3,.47-30.69-1.07-45.93-1.6-15.91-4.33-31.71-8.34-47.19s-9.29-30.55-15.62-45.23c-.75-1.75-1.53-3.49-2.31-5.23-.73-1.61-2.85-3-4.48-3.45-1.8-.49-4.19-.27-5.78,.76s-3.01,2.57-3.45,4.48c-.47,2.08-.12,3.85,.76,5.78h0Z"/></g></svg>